<svg width="32" height="32" viewBox="0 0 32 32" fill="none" xmlns="http://www.w3.org/2000/svg">
<rect x="0.5" y="0.499023" width="31" height="31" rx="15.5" fill="white"/>
<rect x="0.5" y="0.499023" width="31" height="31" rx="15.5" stroke="#C0C6CD"/>
<path fill-rule="evenodd" clip-rule="evenodd" d="M16 10.6657C16.3682 10.6657 16.6667 10.9642 16.6667 11.3324V15.3324L20.6667 15.3324C21.0349 15.3324 21.3334 15.6308 21.3334 15.999C21.3334 16.3672 21.0349 16.6657 20.6667 16.6657L16.6667 16.6657L16.6667 20.6657C16.6667 21.0339 16.3682 21.3324 16 21.3324C15.6318 21.3324 15.3334 21.0339 15.3334 20.6657L15.3334 16.6657H11.3334C10.9652 16.6657 10.6667 16.3672 10.6667 15.999C10.6667 15.6308 10.9652 15.3324 11.3334 15.3324H15.3334V11.3324C15.3334 10.9642 15.6318 10.6657 16 10.6657Z" fill="#27292C"/>
</svg>
