<svg width="20" height="20" viewBox="0 0 20 20" fill="none" xmlns="http://www.w3.org/2000/svg">
<path d="M12.7803 3.21869C12.4874 2.9258 12.0126 2.9258 11.7197 3.21869C11.4268 3.51159 11.4268 3.98646 11.7197 4.27935L13.4393 5.99902H4.75C4.33579 5.99902 4 6.33481 4 6.74902C4 7.16324 4.33579 7.49902 4.75 7.49902H13.4393L11.7197 9.21869C11.4268 9.51159 11.4268 9.98646 11.7197 10.2794C12.0126 10.5722 12.4874 10.5722 12.7803 10.2794L15.7803 7.27935C16.0732 6.98646 16.0732 6.51159 15.7803 6.21869L12.7803 3.21869ZM8.28033 10.7794C8.57322 10.4865 8.57322 10.0116 8.28033 9.71869C7.98744 9.4258 7.51256 9.4258 7.21967 9.71869L4.21967 12.7187C4.07902 12.8593 4 13.0501 4 13.249C4 13.4479 4.07902 13.6387 4.21967 13.7794L7.21967 16.7794C7.51256 17.0722 7.98744 17.0722 8.28033 16.7794C8.57322 16.4865 8.57322 16.0116 8.28033 15.7187L6.56066 13.999H15.25C15.6642 13.999 16 13.6632 16 13.249C16 12.8348 15.6642 12.499 15.25 12.499H6.56066L8.28033 10.7794Z" fill="#346AFF"/>
</svg>
