<svg width="41" height="40" viewBox="0 0 41 40" fill="none" xmlns="http://www.w3.org/2000/svg">
<rect x="0.5" width="40" height="40" rx="20" fill="#02AF72" fill-opacity="0.15"/>
<path d="M24.2964 11C25.7867 11 27.0858 11.9867 27.4482 13.3937L27.8333 14.8926H28.7461C29.1257 14.8926 29.4394 15.1671 29.4891 15.5234L29.4959 15.6224C29.4959 15.9919 29.2138 16.2973 28.8478 16.3456L28.7461 16.3523H28.2102L28.4182 17.1566C29.0668 17.5408 29.5 18.2354 29.5 19.0284V27.297C29.5 28.2375 28.7167 29 27.7504 29H26.2467C25.2804 29 24.4971 28.2375 24.4971 27.297L24.4961 26.0837H16.5029L16.5029 27.297C16.5029 28.2375 15.7196 29 14.7533 29H13.2496C12.2833 29 11.5 28.2375 11.5 27.297V19.0284C11.5 18.2355 11.9331 17.541 12.5815 17.1567L12.7887 16.3523H12.2498C11.8702 16.3523 11.5565 16.0777 11.5068 15.7215L11.5 15.6224C11.5 15.2529 11.7821 14.9476 12.1481 14.8992L12.2498 14.8926H13.1626L13.5485 13.3956C13.9101 11.9877 15.2098 11 16.7008 11H24.2964ZM15.0032 26.0837H12.9987L12.9997 27.297C12.9997 27.4314 13.1116 27.5403 13.2496 27.5403H14.7533C14.8914 27.5403 15.0033 27.4314 15.0033 27.297L15.0032 26.0837ZM28.0003 26.0837H25.9957L25.9967 27.297C25.9967 27.4314 26.1086 27.5403 26.2467 27.5403H27.7504C27.8884 27.5403 28.0003 27.4314 28.0003 27.297L28.0003 26.0837ZM22.2483 21.7046H18.7473L18.6456 21.7112C18.2796 21.7596 17.9975 22.0649 17.9975 22.4344C17.9975 22.8039 18.2796 23.1093 18.6456 23.1576L18.7473 23.1643H22.2483L22.3501 23.1576C22.7161 23.1093 22.9981 22.8039 22.9981 22.4344C22.9981 22.0313 22.6624 21.7046 22.2483 21.7046ZM25.4968 19.7583C24.9447 19.7583 24.4971 20.194 24.4971 20.7314C24.4971 21.2688 24.9447 21.7045 25.4968 21.7045C26.0489 21.7045 26.4965 21.2688 26.4965 20.7314C26.4965 20.194 26.0489 19.7583 25.4968 19.7583ZM15.4991 19.7583C14.9469 19.7583 14.4993 20.194 14.4993 20.7314C14.4993 21.2688 14.9469 21.7045 15.4991 21.7045C16.0512 21.7045 16.4988 21.2688 16.4988 20.7314C16.4988 20.194 16.0512 19.7583 15.4991 19.7583ZM24.2964 12.4597H16.7008C15.8979 12.4597 15.1981 12.9916 15.0034 13.7497L14.21 16.8389H26.7894L25.9935 13.7486C25.7984 12.991 25.0989 12.4597 24.2964 12.4597Z" fill="#02AF72"/>
</svg>
