<svg width="41" height="40" viewBox="0 0 41 40" fill="none" xmlns="http://www.w3.org/2000/svg">
<rect x="0.5" width="40" height="40" rx="20" fill="#BFD0FD"/>
<path fill-rule="evenodd" clip-rule="evenodd" d="M29.5 10C28.8597 10 28.2456 10.2544 27.7929 10.7071L24.9004 13.5996C24.652 13.848 24.2915 13.9479 23.9507 13.8627L12.5 11L11.4811 12.0189C11.0905 12.4095 11.0905 13.0426 11.4811 13.4332C11.5571 13.5092 11.6448 13.5724 11.741 13.6205L20.5 18L16.5 22H12.118C11.7393 22 11.393 22.214 11.2236 22.5528L10.5 24L14.5 26L16.5 30L17.9472 29.2764C18.286 29.107 18.5 28.7607 18.5 28.382L18.5 24L22.5 20L26.8795 28.759C27.1265 29.253 27.7272 29.4533 28.2212 29.2063C28.3173 29.1582 28.4051 29.0949 28.4811 29.0189L29.5 28L26.6373 16.5493C26.5521 16.2085 26.652 15.848 26.9004 15.5996L29.7929 12.7071C30.2456 12.2544 30.5 11.6403 30.5 11C30.5 10.4477 30.0523 10 29.5 10Z" fill="#346AFF"/>
</svg>
