<svg width="36" height="43" viewBox="0 0 36 43" fill="none" xmlns="http://www.w3.org/2000/svg">
<g clip-path="url(#clip0_1816_759)">
<path d="M31.2359 0.5H4.61317C2.06946 0.5 0 2.58696 0 5.15217V24.3478C0 24.3913 0 24.413 0 24.4565C0.0215569 28.7826 5.25988 30.8696 8.27784 27.8043L18.9269 16.9348L11.7916 12.5L13.5808 10.6957L22.1389 13.5435L25.6096 9.91304C26.1701 9.32609 27.0754 9.17391 27.7437 9.63043C28.6491 10.2391 28.7353 11.5 27.9808 12.2174L24.3377 15.7609L27.1617 24.3913L25.3725 26.1957L20.9748 18.9783L12.0072 28.3696C6.98443 33.6304 10.606 42.4348 17.8275 42.5C17.8922 42.5 17.9353 42.5 18 42.5C27.9377 42.5 36 34.3696 36 24.3478V5.30435C36 2.65217 33.8659 0.5 31.2359 0.5Z" fill="#FF742C"/>
</g>
<defs>
<clipPath id="clip0_1816_759">
<rect width="36" height="42" fill="white" transform="translate(0 0.5)"/>
</clipPath>
</defs>
</svg>
