<svg width="41" height="40" viewBox="0 0 41 40" fill="none" xmlns="http://www.w3.org/2000/svg">
<rect x="0.5" width="40" height="40" rx="20" fill="#FF742C" fill-opacity="0.15"/>
<path d="M26 19C27.3255 19 28.41 20.0315 28.4947 21.3356L28.5 21.5V26.5C28.5 26.7761 28.2761 27 28 27C27.7545 27 27.5504 26.8231 27.5081 26.5899L27.5 26.5V24H13.5V26.5C13.5 26.7761 13.2761 27 13 27C12.7545 27 12.5504 26.8231 12.5081 26.5899L12.5 26.5V21.5C12.5 20.1745 13.5315 19.09 14.8356 19.0053L15 19H26ZM17 13H24C25.3255 13 26.41 14.0315 26.4947 15.3356L26.5 15.5V18H24.5V17.5C24.5 17.2545 24.3231 17.0504 24.0899 17.0081L24 17H21.5C21.2545 17 21.0504 17.1769 21.0081 17.4101L21 17.5V18H20V17.5C20 17.2545 19.8231 17.0504 19.5899 17.0081L19.5 17H17C16.7545 17 16.5504 17.1769 16.5081 17.4101L16.5 17.5V18H14.5V15.5C14.5 14.1745 15.5315 13.09 16.8356 13.0053L17 13Z" fill="#FF742C"/>
</svg>
