<svg width="22" height="16" viewBox="0 0 22 16" fill="none" xmlns="http://www.w3.org/2000/svg">
<g clip-path="url(#clip0_1816_1188)">
<path fill-rule="evenodd" clip-rule="evenodd" d="M0 -0.000976562H23.985V1.77569H0V-0.000976562Z" fill="#0D5EAF"/>
<path fill-rule="evenodd" clip-rule="evenodd" d="M0 1.77571H23.985V3.55237H0V1.77571Z" fill="white"/>
<path fill-rule="evenodd" clip-rule="evenodd" d="M0 3.55239H23.985V5.32906H0V3.55239Z" fill="#0D5EAF"/>
<path fill-rule="evenodd" clip-rule="evenodd" d="M0 5.32899H23.985V7.10565H0V5.32899Z" fill="white"/>
<path fill-rule="evenodd" clip-rule="evenodd" d="M0 7.10567H23.985V8.88234H0V7.10567Z" fill="#0D5EAF"/>
<path fill-rule="evenodd" clip-rule="evenodd" d="M0 8.88236H23.985V10.659H0V8.88236Z" fill="white"/>
<path fill-rule="evenodd" clip-rule="evenodd" d="M0 10.659H23.985V12.4357H0V10.659Z" fill="#0D5EAF"/>
<path fill-rule="evenodd" clip-rule="evenodd" d="M0 12.4357H23.985V14.2124H0V12.4357Z" fill="white"/>
<path fill-rule="evenodd" clip-rule="evenodd" d="M0 14.2124H23.985V15.989H0V14.2124ZM0 -0.000976562H8.88333V8.88236H0V-0.000976562Z" fill="#0D5EAF"/>
<path fill-rule="evenodd" clip-rule="evenodd" d="M3.55334 -0.000976562H5.33001V8.88236H3.55334V-0.000976562Z" fill="white"/>
<path fill-rule="evenodd" clip-rule="evenodd" d="M0 3.55239H8.88333V5.32906H0V3.55239Z" fill="white"/>
</g>
<defs>
<clipPath id="clip0_1816_1188">
<rect width="21.3333" height="16" fill="white" transform="translate(0 -0.000976562)"/>
</clipPath>
</defs>
</svg>
