<svg width="424" height="318" viewBox="0 0 424 318" fill="none" xmlns="http://www.w3.org/2000/svg">
<g clip-path="url(#clip0_1816_1353)">
<path fill-rule="evenodd" clip-rule="evenodd" d="M22.8148 328.283C8.12803 296.914 35.5544 248.851 74.8011 229.977C150.729 193.459 156.389 168.593 150.02 149.752C134.128 102.73 122.136 73.3433 164.755 72.4873C255.011 70.6741 187.122 36.4179 247.019 7.94833C304.619 -19.4298 421.329 28.5041 421.329 81.7738C421.329 157.334 467.921 150.615 539.636 199.443C623.28 256.4 455.291 285.91 554.682 328.283H22.8148Z" fill="#9ED8F5"/>
<path fill-rule="evenodd" clip-rule="evenodd" d="M387.529 174.592C393.648 175.715 399.181 178.947 403.164 183.727C407.148 188.506 409.331 194.53 409.334 200.752V248.195H431.133V328.283H290.722V248.195H312.522V200.752C312.525 194.531 314.707 188.507 318.69 183.728C322.672 178.949 328.203 175.716 334.322 174.592V127.925C334.322 120.868 337.125 114.1 342.115 109.11C347.104 104.12 353.872 101.317 360.928 101.317C367.984 101.317 374.752 104.12 379.741 109.11C384.731 114.1 387.534 120.868 387.534 127.925L387.529 174.592Z" fill="#FBF8F3"/>
<path fill-rule="evenodd" clip-rule="evenodd" d="M317.321 260.27C321.827 260.269 326.15 262.058 329.337 265.245C332.524 268.431 334.316 272.753 334.317 277.26V328.283H300.327V277.26C300.327 275.028 300.767 272.819 301.621 270.757C302.476 268.696 303.728 266.822 305.306 265.245C306.884 263.667 308.757 262.416 310.818 261.562C312.88 260.708 315.089 260.269 317.321 260.27Z" fill="#B4B5B5"/>
<path fill-rule="evenodd" clip-rule="evenodd" d="M320.466 260.561C324.359 261.293 327.873 263.363 330.403 266.412C332.932 269.461 334.316 273.298 334.317 277.26V328.283H306.612V277.26C306.613 273.298 307.999 269.461 310.528 266.412C313.058 263.363 316.573 261.293 320.466 260.561Z" fill="#01283D"/>
<path fill-rule="evenodd" clip-rule="evenodd" d="M360.923 260.27C365.43 260.269 369.752 262.058 372.939 265.245C376.126 268.431 377.918 272.753 377.919 277.26V328.283H343.927V277.26C343.928 272.753 345.719 268.431 348.907 265.245C352.094 262.058 356.416 260.269 360.923 260.27Z" fill="#B4B5B5"/>
<path fill-rule="evenodd" clip-rule="evenodd" d="M364.065 260.561C367.958 261.293 371.473 263.363 374.003 266.412C376.533 269.461 377.918 273.298 377.919 277.26V328.283H350.214V277.26C350.215 273.298 351.6 269.461 354.129 266.413C356.658 263.364 360.173 261.294 364.065 260.561Z" fill="#01283D"/>
<path fill-rule="evenodd" clip-rule="evenodd" d="M404.522 260.27C406.754 260.269 408.963 260.708 411.025 261.562C413.086 262.416 414.959 263.667 416.537 265.245C418.115 266.822 419.367 268.696 420.222 270.757C421.076 272.819 421.516 275.028 421.516 277.26V328.283H387.529V277.26C387.53 272.753 389.321 268.431 392.509 265.245C395.696 262.058 400.018 260.269 404.525 260.27" fill="#B4B5B5"/>
<path fill-rule="evenodd" clip-rule="evenodd" d="M407.665 260.561C411.558 261.293 415.073 263.363 417.603 266.412C420.132 269.461 421.517 273.298 421.519 277.26V328.283H393.814V277.26C393.815 273.298 395.2 269.461 397.729 266.413C400.258 263.364 403.772 261.294 407.665 260.561Z" fill="#01283D"/>
<path fill-rule="evenodd" clip-rule="evenodd" d="M339.123 183.765C343.629 183.764 347.951 185.553 351.138 188.739C354.324 191.925 356.115 196.246 356.117 200.752V248.195H322.127V200.752C322.128 198.521 322.568 196.311 323.422 194.25C324.277 192.189 325.529 190.316 327.107 188.738C328.685 187.161 330.559 185.91 332.621 185.056C334.682 184.203 336.892 183.764 339.123 183.765Z" fill="#B4B5B5"/>
<path fill-rule="evenodd" clip-rule="evenodd" d="M342.266 184.056C346.158 184.788 349.673 186.857 352.202 189.906C354.731 192.955 356.116 196.791 356.117 200.752V248.195H328.412V200.752C328.413 196.791 329.798 192.954 332.328 189.906C334.858 186.857 338.373 184.788 342.266 184.056Z" fill="#00507A"/>
<path fill-rule="evenodd" clip-rule="evenodd" d="M382.723 183.765C387.228 183.765 391.548 185.555 394.734 188.741C397.92 191.926 399.71 196.247 399.711 200.752V248.195H365.729V200.752C365.73 196.246 367.521 191.925 370.708 188.739C373.895 185.553 378.217 183.764 382.723 183.765Z" fill="#B4B5B5"/>
<path fill-rule="evenodd" clip-rule="evenodd" d="M385.865 184.056C389.757 184.79 393.27 186.859 395.798 189.908C398.326 192.956 399.71 196.792 399.711 200.752V248.195H372.014V200.752C372.015 196.791 373.4 192.955 375.929 189.906C378.458 186.858 381.973 184.789 385.865 184.056Z" fill="#00507A"/>
<path fill-rule="evenodd" clip-rule="evenodd" d="M360.923 110.937C363.154 110.937 365.364 111.375 367.426 112.229C369.487 113.082 371.361 114.333 372.939 115.911C374.517 117.488 375.769 119.361 376.624 121.422C377.478 123.484 377.918 125.693 377.919 127.925V171.518H343.927V127.925C343.927 125.693 344.368 123.484 345.222 121.422C346.077 119.361 347.329 117.488 348.907 115.911C350.485 114.333 352.359 113.082 354.42 112.229C356.482 111.375 358.692 110.937 360.923 110.937Z" fill="#B4B5B5"/>
<path fill-rule="evenodd" clip-rule="evenodd" d="M364.065 111.228C367.958 111.961 371.473 114.03 374.002 117.079C376.532 120.127 377.917 123.963 377.919 127.925V171.518H350.214V127.925C350.216 123.964 351.601 120.128 354.13 117.079C356.659 114.031 360.173 111.961 364.065 111.228Z" fill="#00507A"/>
<path d="M377.916 128.586H347.213V131.376H377.916V128.586Z" fill="#956C26"/>
<path fill-rule="evenodd" clip-rule="evenodd" d="M362.566 151.37H354.995V150.137C356.474 149.567 357.426 146.3 357.426 144.145V140.042C357.426 138.679 357.967 137.371 358.931 136.407C359.895 135.443 361.203 134.902 362.566 134.902C363.929 134.902 365.237 135.443 366.201 136.407C367.165 137.371 367.707 138.679 367.707 140.042V144.145C367.707 146.3 368.659 149.567 370.137 150.137V151.37H362.566Z" fill="#D9B500"/>
<path fill-rule="evenodd" clip-rule="evenodd" d="M362.566 134.914C363.241 134.914 363.909 135.047 364.533 135.305C365.157 135.563 365.723 135.941 366.201 136.418C366.678 136.895 367.057 137.462 367.315 138.086C367.574 138.709 367.707 139.378 367.707 140.053V144.145C367.707 146.3 368.659 149.567 370.137 150.137V151.37H362.566V134.914Z" fill="#C5A405"/>
<path fill-rule="evenodd" clip-rule="evenodd" d="M364.949 151.37C365.067 151.744 365.096 152.142 365.032 152.529C364.969 152.917 364.815 153.284 364.582 153.601C364.35 153.918 364.047 154.176 363.697 154.353C363.346 154.531 362.959 154.624 362.566 154.624C362.173 154.624 361.786 154.531 361.436 154.353C361.085 154.176 360.782 153.918 360.55 153.601C360.318 153.284 360.164 152.917 360.1 152.529C360.036 152.142 360.065 151.744 360.183 151.37H364.949Z" fill="#B2871C"/>
<path d="M363.708 131.376H361.427V135.16H363.708V131.376Z" fill="#B2871C"/>
<path d="M356.117 203.006H325.414V205.799H356.117V203.006Z" fill="#956C26"/>
<path fill-rule="evenodd" clip-rule="evenodd" d="M340.766 225.793H333.195V224.56C334.674 223.987 335.623 220.723 335.623 218.568V214.476C335.653 213.132 336.208 211.853 337.169 210.913C338.13 209.973 339.421 209.446 340.765 209.446C342.109 209.446 343.4 209.973 344.361 210.913C345.322 211.853 345.877 213.132 345.907 214.476V218.568C345.907 220.723 346.859 223.987 348.338 224.56V225.793H340.766Z" fill="#D9B500"/>
<path fill-rule="evenodd" clip-rule="evenodd" d="M340.766 209.337C341.441 209.337 342.11 209.47 342.733 209.728C343.357 209.986 343.924 210.364 344.401 210.841C344.878 211.319 345.257 211.885 345.515 212.509C345.774 213.132 345.907 213.801 345.907 214.476V218.568C345.907 220.723 346.859 223.987 348.338 224.56V225.793H340.766V209.337Z" fill="#C5A405"/>
<path fill-rule="evenodd" clip-rule="evenodd" d="M343.149 225.793C343.268 226.167 343.296 226.565 343.233 226.952C343.169 227.34 343.015 227.707 342.783 228.024C342.551 228.341 342.247 228.599 341.897 228.776C341.546 228.954 341.159 229.047 340.766 229.047C340.374 229.047 339.986 228.954 339.636 228.776C339.286 228.599 338.982 228.341 338.75 228.024C338.518 227.707 338.364 227.34 338.3 226.952C338.236 226.565 338.265 226.167 338.384 225.793H343.149Z" fill="#B2871C"/>
<path d="M341.906 205.8H339.625V209.583H341.906V205.8Z" fill="#B2871C"/>
<path d="M399.719 203.006H369.016V205.799H399.719V203.006Z" fill="#956C26"/>
<path fill-rule="evenodd" clip-rule="evenodd" d="M384.366 225.793H376.795V224.56C378.273 223.987 379.226 220.723 379.226 218.568V214.476C379.255 213.132 379.81 211.853 380.771 210.913C381.732 209.973 383.023 209.446 384.367 209.446C385.711 209.446 387.002 209.973 387.963 210.913C388.924 211.853 389.479 213.132 389.509 214.476V218.568C389.509 220.723 390.458 223.987 391.937 224.56V225.793H384.366Z" fill="#D9B500"/>
<path fill-rule="evenodd" clip-rule="evenodd" d="M384.366 209.337C385.041 209.337 385.71 209.47 386.334 209.728C386.957 209.986 387.524 210.364 388.002 210.841C388.479 211.318 388.858 211.885 389.117 212.508C389.375 213.132 389.509 213.8 389.509 214.476V218.568C389.509 220.723 390.459 223.987 391.938 224.56V225.793H384.366V209.337Z" fill="#C5A405"/>
<path fill-rule="evenodd" clip-rule="evenodd" d="M386.749 225.793C386.867 226.167 386.896 226.565 386.832 226.952C386.769 227.34 386.614 227.707 386.382 228.024C386.15 228.341 385.847 228.599 385.496 228.776C385.146 228.954 384.759 229.047 384.366 229.047C383.973 229.047 383.586 228.954 383.236 228.776C382.885 228.599 382.582 228.341 382.35 228.024C382.118 227.707 381.963 227.34 381.9 226.952C381.836 226.565 381.865 226.167 381.983 225.793H386.749Z" fill="#B2871C"/>
<path d="M385.508 205.8H383.227V209.583H385.508V205.8Z" fill="#B2871C"/>
<path d="M537.319 278.865H421.519V328.283H537.319V278.865Z" fill="#ECE8DB"/>
<path d="M200.563 266.573H65.6067V328.28H200.563V266.573Z" fill="#FBF8F3"/>
<path fill-rule="evenodd" clip-rule="evenodd" d="M98.4216 328.283H70.7775V292.069C70.8267 288.434 72.3051 284.965 74.8928 282.411C77.4806 279.858 80.9695 278.427 84.6046 278.427C88.2397 278.427 91.7286 279.858 94.3163 282.411C96.9041 284.965 98.3825 288.434 98.4317 292.069L98.4216 328.283Z" fill="#B4B5B5"/>
<path fill-rule="evenodd" clip-rule="evenodd" d="M98.4216 328.283H75.6317V292.069C75.6433 288.828 76.7893 285.692 78.8707 283.208C80.952 280.723 83.8376 279.045 87.0266 278.465C90.2157 279.045 93.1012 280.723 95.1826 283.208C97.264 285.692 98.4099 288.828 98.4216 292.069V328.283Z" fill="#01283D"/>
<path fill-rule="evenodd" clip-rule="evenodd" d="M130.748 328.283H103.094V292.069C103.143 288.434 104.621 284.965 107.209 282.411C109.797 279.858 113.286 278.427 116.921 278.427C120.556 278.427 124.045 279.858 126.632 282.411C129.22 284.965 130.699 288.434 130.748 292.069V328.283Z" fill="#B4B5B5"/>
<path fill-rule="evenodd" clip-rule="evenodd" d="M163.074 328.283H135.422V292.069C135.422 288.402 136.879 284.885 139.472 282.292C142.064 279.699 145.581 278.242 149.248 278.242C152.915 278.242 156.431 279.699 159.024 282.292C161.617 284.885 163.074 288.402 163.074 292.069V328.283Z" fill="#B4B5B5"/>
<path fill-rule="evenodd" clip-rule="evenodd" d="M195.403 328.283H167.761V292.069C167.81 288.434 169.289 284.965 171.876 282.411C174.464 279.858 177.953 278.427 181.588 278.427C185.223 278.427 188.712 279.858 191.3 282.411C193.888 284.965 195.366 288.434 195.415 292.069L195.403 328.283Z" fill="#B4B5B5"/>
<path fill-rule="evenodd" clip-rule="evenodd" d="M130.748 328.283H107.958V292.069C107.969 288.828 109.115 285.692 111.196 283.207C113.278 280.722 116.164 279.044 119.353 278.465C122.542 279.044 125.428 280.722 127.509 283.207C129.591 285.692 130.737 288.828 130.748 292.069V328.283Z" fill="#01283D"/>
<path fill-rule="evenodd" clip-rule="evenodd" d="M163.074 328.283H140.284V292.069C140.295 288.827 141.44 285.692 143.522 283.207C145.603 280.721 148.489 279.044 151.679 278.465C154.868 279.044 157.754 280.722 159.835 283.207C161.917 285.692 163.063 288.828 163.074 292.069V328.283Z" fill="#01283D"/>
<path fill-rule="evenodd" clip-rule="evenodd" d="M195.403 328.283H172.613V292.069C172.624 288.828 173.77 285.692 175.851 283.207C177.933 280.722 180.818 279.044 184.008 278.465C187.197 279.044 190.083 280.722 192.164 283.207C194.246 285.692 195.391 288.828 195.403 292.069V328.283Z" fill="#01283D"/>
<path d="M200.563 261.513H65.6067V266.575H200.563V261.513Z" fill="#B4B5B5"/>
<path d="M313.272 169.036H200.563V328.283H313.272V169.036Z" fill="#ECE8DB"/>
<path d="M200.563 169.036H179.298V261.513H200.563V169.036Z" fill="#FBF8F3"/>
<path fill-rule="evenodd" clip-rule="evenodd" d="M246.513 118.517C275.633 118.517 299.603 140.665 302.452 169.039H190.563C193.415 140.663 217.372 118.517 246.513 118.517Z" fill="#0073B6"/>
<path fill-rule="evenodd" clip-rule="evenodd" d="M198.284 169.036C199.565 159.268 203.388 150.008 209.371 142.181C215.353 134.354 223.286 128.236 232.375 124.438C224.816 129.417 218.436 135.989 213.683 143.692C208.93 151.396 205.918 160.046 204.858 169.036H198.284Z" fill="#00507A"/>
<path d="M259.108 102.16H233.902V119.965H259.108V102.16Z" fill="#ECE8DB"/>
<path fill-rule="evenodd" clip-rule="evenodd" d="M246.513 90.8627C249.627 90.8617 252.63 92.0167 254.941 94.1038C257.252 96.1909 258.706 99.0617 259.022 102.16H234.004C234.319 99.0617 235.773 96.1909 238.084 94.1038C240.395 92.0167 243.399 90.8617 246.513 90.8627Z" fill="#0073B6"/>
<path fill-rule="evenodd" clip-rule="evenodd" d="M235.72 102.16C236.006 99.974 236.86 97.9016 238.198 96.1501C239.536 94.3985 241.311 93.0293 243.345 92.1795C241.654 93.2929 240.228 94.7623 239.165 96.485C238.102 98.2077 237.429 100.142 237.192 102.152L235.72 102.16Z" fill="#00507A"/>
<path fill-rule="evenodd" clip-rule="evenodd" d="M228.577 181.321C227.624 181.321 226.679 181.508 225.799 181.873C224.918 182.237 224.117 182.772 223.443 183.446C222.768 184.12 222.233 184.92 221.868 185.801C221.503 186.681 221.315 187.625 221.315 188.579V200.137H235.837V188.581C235.837 187.628 235.649 186.684 235.284 185.803C234.919 184.922 234.385 184.122 233.71 183.448C233.036 182.773 232.236 182.239 231.355 181.874C230.474 181.509 229.53 181.321 228.577 181.321Z" fill="#B4B5B5"/>
<path fill-rule="evenodd" clip-rule="evenodd" d="M227.232 181.448C225.569 181.761 224.068 182.645 222.987 183.947C221.906 185.25 221.315 186.889 221.315 188.581V200.139H233.15V188.581C233.15 186.889 232.558 185.25 231.478 183.947C230.397 182.645 228.896 181.761 227.232 181.448Z" fill="#272423"/>
<path fill-rule="evenodd" clip-rule="evenodd" d="M265.914 181.321C263.991 181.324 262.148 182.091 260.789 183.452C259.43 184.813 258.667 186.658 258.667 188.582V200.14H273.189V188.582C273.189 187.627 273.001 186.681 272.635 185.8C272.27 184.918 271.733 184.117 271.058 183.442C270.382 182.768 269.58 182.233 268.697 181.869C267.815 181.505 266.869 181.319 265.914 181.321Z" fill="#B4B5B5"/>
<path fill-rule="evenodd" clip-rule="evenodd" d="M264.572 181.448C262.911 181.763 261.413 182.648 260.335 183.951C259.257 185.253 258.667 186.891 258.667 188.581V200.139H270.503V188.581C270.502 186.889 269.911 185.25 268.83 183.947C267.75 182.645 266.248 181.761 264.585 181.448" fill="#272423"/>
<path fill-rule="evenodd" clip-rule="evenodd" d="M264.332 234.388H264.408V328.283H211.274V234.388L224.538 221.984L237.802 209.578L251.068 221.984L264.332 234.388Z" fill="#FBF8F3"/>
<path d="M313.272 234.388H264.408V328.28H313.272V234.388Z" fill="#ECE8DB"/>
<path fill-rule="evenodd" clip-rule="evenodd" d="M313.272 234.388L300.008 221.984L286.742 209.578H286.668H237.802L251.068 221.984L264.332 234.388H264.408H313.272Z" fill="#0073B6"/>
<path fill-rule="evenodd" clip-rule="evenodd" d="M237.84 274.945C239.59 274.944 241.323 275.288 242.94 275.958C244.557 276.627 246.026 277.608 247.264 278.845C248.502 280.082 249.484 281.551 250.154 283.168C250.824 284.785 251.169 286.518 251.169 288.268V328.28H224.51V288.268C224.511 286.518 224.856 284.785 225.526 283.168C226.196 281.551 227.178 280.082 228.416 278.845C229.653 277.608 231.123 276.627 232.74 275.958C234.357 275.288 236.09 274.944 237.84 274.945Z" fill="#B4B5B5"/>
<path fill-rule="evenodd" clip-rule="evenodd" d="M240.304 275.173C243.357 275.747 246.114 277.369 248.098 279.761C250.082 282.152 251.168 285.161 251.169 288.268V328.28H229.44V288.268C229.441 285.161 230.527 282.152 232.511 279.761C234.494 277.37 237.251 275.747 240.304 275.173Z" fill="#272423"/>
<path fill-rule="evenodd" clip-rule="evenodd" d="M288.839 249.659C287.297 249.658 285.77 249.962 284.346 250.551C282.921 251.141 281.627 252.005 280.537 253.095C279.446 254.185 278.581 255.479 277.991 256.904C277.401 258.328 277.097 259.855 277.097 261.396V280.086H300.58V261.396C300.58 259.855 300.276 258.328 299.686 256.904C299.096 255.479 298.231 254.185 297.14 253.095C296.05 252.005 294.756 251.141 293.331 250.551C291.907 249.962 290.38 249.658 288.839 249.659Z" fill="#B4B5B5"/>
<path fill-rule="evenodd" clip-rule="evenodd" d="M286.668 249.861C283.979 250.367 281.55 251.797 279.803 253.903C278.055 256.009 277.098 258.659 277.097 261.396V280.086H296.238V261.396C296.237 258.66 295.28 256.009 293.533 253.903C291.786 251.797 289.358 250.367 286.668 249.861Z" fill="#272423"/>
<path fill-rule="evenodd" clip-rule="evenodd" d="M237.84 240.833C238.793 240.833 239.737 241.02 240.618 241.385C241.499 241.749 242.3 242.284 242.974 242.958C243.648 243.632 244.183 244.432 244.549 245.313C244.914 246.194 245.102 247.138 245.102 248.091V259.649H230.58V248.096C230.58 247.142 230.767 246.198 231.132 245.317C231.497 244.436 232.031 243.635 232.705 242.961C233.38 242.286 234.18 241.751 235.061 241.386C235.942 241.021 236.886 240.833 237.84 240.833Z" fill="#B4B5B5"/>
<path fill-rule="evenodd" clip-rule="evenodd" d="M239.184 240.965C240.847 241.277 242.349 242.161 243.43 243.463C244.51 244.765 245.102 246.404 245.102 248.096V259.654H233.264V248.096C233.265 246.404 233.857 244.764 234.938 243.462C236.019 242.16 237.521 241.277 239.184 240.965Z" fill="#272423"/>
<path d="M250.992 86.0739H242.015V91.6908H250.992V86.0739Z" fill="#ECE8DB"/>
<path d="M247.579 64.7128H245.431V86.0738H247.579V64.7128Z" fill="#ECE8DB"/>
<path fill-rule="evenodd" clip-rule="evenodd" d="M125.823 248.329H154.15L174.319 230.589H145.989L125.823 248.329Z" fill="#F39F1E"/>
<path fill-rule="evenodd" clip-rule="evenodd" d="M126.489 177.603L165.664 200.757H150.099L126.489 177.603Z" fill="#0073B6"/>
<path fill-rule="evenodd" clip-rule="evenodd" d="M102.982 200.709C102.982 203.69 101.149 206.129 98.9078 206.129H91.3517C89.1107 206.129 87.2773 203.69 87.2773 200.709H102.982Z" fill="#00507A"/>
<path fill-rule="evenodd" clip-rule="evenodd" d="M102.982 200.709L126.489 177.603L87.2773 200.709H102.982Z" fill="#0073B6"/>
<path fill-rule="evenodd" clip-rule="evenodd" d="M118.689 200.757L126.489 177.603L102.982 200.757H118.689Z" fill="#00507A"/>
<path fill-rule="evenodd" clip-rule="evenodd" d="M134.394 200.757L126.489 177.603L118.689 200.757H134.394Z" fill="#0073B6"/>
<path fill-rule="evenodd" clip-rule="evenodd" d="M150.099 200.757L126.489 177.603L134.376 200.709L150.099 200.757Z" fill="#00507A"/>
<path fill-rule="evenodd" clip-rule="evenodd" d="M118.689 200.709C118.689 203.69 116.856 206.129 114.615 206.129H107.056C104.815 206.129 102.982 203.69 102.982 200.709H118.689Z" fill="#0073B6"/>
<path fill-rule="evenodd" clip-rule="evenodd" d="M134.394 200.709C134.394 203.69 132.561 206.129 130.32 206.129H122.761C120.523 206.129 118.689 203.69 118.689 200.709H134.394Z" fill="#00507A"/>
<path fill-rule="evenodd" clip-rule="evenodd" d="M150.084 200.709C150.084 203.69 148.25 206.129 146.009 206.129H138.451C136.21 206.129 134.376 203.69 134.376 200.709H150.084Z" fill="#0073B6"/>
<path fill-rule="evenodd" clip-rule="evenodd" d="M165.788 200.709C165.788 203.69 163.955 206.129 161.717 206.129H154.158C151.917 206.129 150.084 203.69 150.084 200.709H165.788Z" fill="#00507A"/>
<path d="M127.615 206.129H125.45V261.513H127.615V206.129Z" fill="#745D38"/>
<path d="M126.532 206.129H125.45V261.513H126.532V206.129Z" fill="#C8A44F"/>
<path d="M102.622 248.329H99.204V261.51H102.622V248.329Z" fill="#F39F1E"/>
<path d="M149.509 248.329H146.09V261.51H149.509V248.329Z" fill="#F39F1E"/>
<path fill-rule="evenodd" clip-rule="evenodd" d="M81.0886 248.329H152.315C152.951 248.328 153.561 248.074 154.011 247.625C154.462 247.175 154.716 246.565 154.718 245.928C154.715 245.292 154.461 244.683 154.011 244.233C153.56 243.783 152.951 243.53 152.315 243.528H81.0886C80.4526 243.53 79.8432 243.783 79.3934 244.233C78.9437 244.683 78.6901 245.292 78.6881 245.928C78.6901 246.564 78.9437 247.174 79.3934 247.624C79.8432 248.074 80.4526 248.327 81.0886 248.329Z" fill="#F7B300"/>
<path d="M87.4014 248.329H83.9829V261.51H87.4014V248.329Z" fill="#F39F1E"/>
<path d="M134.288 248.329H130.869V261.51H134.288V248.329Z" fill="#F39F1E"/>
<path fill-rule="evenodd" clip-rule="evenodd" d="M30.1305 263.744C33.1489 294.698 45.9264 314.365 59.3218 328.283H48.532C37.0206 316.343 25.7042 290.19 26.4638 263.744H30.1305Z" fill="#B75720"/>
<path fill-rule="evenodd" clip-rule="evenodd" d="M53.9256 328.283H48.5295C37.0206 316.343 25.7042 290.19 26.4638 263.744H28.6238C28.7681 264.881 28.877 266.084 28.9226 267.37C30.4242 305.668 53.9155 328.283 53.9155 328.283" fill="#904324"/>
<path fill-rule="evenodd" clip-rule="evenodd" d="M27.7527 265.618C28.2794 250.469 32.969 238.574 50.6261 234.439C49.01 237.895 47.1817 241.247 45.1515 244.477L44.3918 244.343L39.3274 243.444L42.4471 246.546L43.2625 247.359C42.2766 248.813 41.2586 250.233 40.2086 251.619L38.8767 251.077L34.6985 249.378L38.2436 253.784L38.393 253.966C37.8629 254.628 37.327 255.283 36.7851 255.931L36.3394 255.521L33.3489 252.68L35.243 257.428L35.329 257.643C32.9159 260.416 30.3811 263.07 27.7527 265.631" fill="#009844"/>
<path fill-rule="evenodd" clip-rule="evenodd" d="M28.4896 265.534C42.4598 259.639 55.2272 258.889 66.4094 273.162C62.5927 273.149 58.7804 272.9 54.9942 272.418L54.7967 271.658L53.485 266.699L51.9834 270.83L51.5884 271.911C49.8564 271.631 48.1396 271.306 46.4379 270.936L46.3695 269.5L46.1543 264.995L43.6424 270.06L43.5385 270.273C42.7164 270.07 41.8968 269.859 41.0798 269.639L41.2773 269.06L42.5991 265.155L39.0844 268.867L38.9249 269.037C35.395 268.024 31.9208 266.834 28.4896 265.527" fill="#40A437"/>
<path fill-rule="evenodd" clip-rule="evenodd" d="M28.4896 265.534C36.7142 252.799 46.843 244.991 64.1228 250.492C60.9625 252.634 57.6728 254.58 54.2725 256.316L53.6876 255.81L49.8083 252.449L50.8946 256.712L51.1782 257.826C49.588 258.569 47.9842 259.266 46.367 259.918L45.501 258.77L42.7839 255.169L43.5613 260.763L43.5942 260.996C42.8025 261.295 42.0065 261.583 41.2063 261.86L41.0418 261.27L39.9402 257.294L39.1249 262.331L39.0894 262.561C35.595 263.704 32.0575 264.684 28.4871 265.534" fill="#6CB82D"/>
<path fill-rule="evenodd" clip-rule="evenodd" d="M28.4896 265.534C39.3781 268.006 47.3343 273.038 47.8889 286.374C45.6117 284.727 43.4383 282.942 41.3811 281.028L41.5837 280.499L42.9308 276.968L40.2568 278.794L39.5554 279.273C38.6421 278.36 37.7558 277.431 36.8965 276.487L37.4714 275.598L39.2794 272.813L35.6026 274.76L35.4507 274.841C35.0455 274.37 34.6454 273.891 34.2529 273.41L34.6176 273.157L37.0865 271.384L33.3894 272.098L33.2223 272.131C31.5485 270.004 29.9786 267.806 28.4896 265.547" fill="#009844"/>
<path fill-rule="evenodd" clip-rule="evenodd" d="M28.4896 265.534C27.2944 250.423 22.0831 238.746 4.25891 235.399C6.02922 238.778 8.00466 242.046 10.1741 245.184L10.9338 245.017L15.9425 243.897L12.9596 247.131L12.1797 247.977C13.228 249.385 14.3076 250.759 15.4183 252.1L16.7275 251.497L20.8271 249.616L17.4872 254.174L17.3479 254.364C17.905 255 18.4688 255.63 19.0394 256.253L19.4648 255.812L22.3262 252.842L20.6398 257.669L20.5613 257.889C23.0935 260.553 25.7447 263.091 28.4845 265.534" fill="#40A437"/>
<path fill-rule="evenodd" clip-rule="evenodd" d="M28.4896 265.534C17.9936 254.592 6.56574 248.851 -9.35425 257.547C-5.84391 259.045 -2.24475 260.325 1.42283 261.381L1.89888 260.774L5.06921 256.737L4.81598 261.126L4.74762 262.275C6.45095 262.704 8.15681 263.085 9.8652 263.417L10.4983 262.126L12.4784 258.074L12.7899 263.701V263.937C13.6255 264.075 14.4612 264.206 15.2968 264.329L15.3474 263.719L15.6792 259.609L17.434 264.42L17.515 264.641C21.1639 265.096 24.823 265.4 28.4896 265.545" fill="#009844"/>
<path fill-rule="evenodd" clip-rule="evenodd" d="M28.4896 265.534C17.2846 271.106 9.9488 278.703 12.8735 293.361C14.9181 290.966 16.8125 288.448 18.5456 285.819L18.1861 285.295L15.783 281.805L19.1812 283.087L20.07 283.424C20.8246 282.188 21.5438 280.938 22.2275 279.676L21.3665 278.86L18.6596 276.302L23.1796 277.455L23.3695 277.5C23.6835 276.88 23.9924 276.252 24.2937 275.624L23.8253 275.434L20.6676 274.167L24.8838 273.965H25.0762C26.3423 271.205 27.4615 268.394 28.4896 265.547" fill="#40A437"/>
<path fill-rule="evenodd" clip-rule="evenodd" d="M28.4895 265.534C16.5476 261.797 6.001 262.192 -2.05396 274.801C1.07946 274.485 4.19061 273.977 7.26204 273.281L7.36586 272.651L8.04955 268.472L9.61446 271.749L10.0221 272.605C11.4233 272.237 12.8076 271.833 14.175 271.395L14.1167 270.212L13.9395 266.494L16.4008 270.452L16.5046 270.617C17.163 270.386 17.8188 270.149 18.4721 269.905L18.267 269.442L16.8718 266.34L20.0497 269.125L20.1966 269.252C23.0149 268.133 25.7674 266.884 28.4895 265.542" fill="#6CB82D"/>
<path fill-rule="evenodd" clip-rule="evenodd" d="M27.8311 262.916C27.2553 262.916 26.6925 263.088 26.214 263.408C25.7354 263.728 25.3626 264.183 25.1426 264.715C24.9226 265.248 24.8652 265.833 24.9779 266.398C25.0905 266.963 25.3681 267.481 25.7754 267.888C26.1828 268.295 26.7017 268.573 27.2665 268.685C27.8313 268.797 28.4167 268.739 28.9486 268.519C29.4806 268.298 29.9352 267.925 30.2551 267.446C30.575 266.967 30.7457 266.404 30.7457 265.828C30.7457 265.446 30.6703 265.067 30.5238 264.713C30.3773 264.36 30.1626 264.038 29.8919 263.768C29.6212 263.498 29.2999 263.283 28.9463 263.137C28.5927 262.991 28.2138 262.916 27.8311 262.916Z" fill="#6D2E1B"/>
<path fill-rule="evenodd" clip-rule="evenodd" d="M30.7053 264.742C30.1293 264.742 29.5665 264.914 29.0879 265.234C28.6093 265.554 28.2364 266.01 28.0165 266.542C27.7965 267.074 27.7394 267.66 27.8522 268.225C27.9651 268.79 28.2429 269.308 28.6505 269.715C29.0581 270.122 29.5772 270.399 30.1422 270.511C30.7072 270.623 31.2926 270.565 31.8245 270.344C32.3565 270.123 32.8109 269.749 33.1305 269.27C33.4501 268.791 33.6204 268.228 33.6199 267.652C33.6199 267.269 33.5444 266.89 33.3979 266.537C33.2514 266.184 33.0366 265.863 32.7659 265.592C32.4952 265.322 32.1738 265.108 31.8203 264.962C31.4667 264.816 31.0878 264.741 30.7053 264.742Z" fill="#9F4B24"/>
<path fill-rule="evenodd" clip-rule="evenodd" d="M27.1829 266.193C26.607 266.193 26.044 266.364 25.5651 266.684C25.0862 267.004 24.7129 267.459 24.4925 267.991C24.2721 268.523 24.2145 269.108 24.3268 269.673C24.4392 270.238 24.7165 270.757 25.1238 271.164C25.531 271.572 26.0499 271.849 26.6148 271.962C27.1797 272.074 27.7652 272.016 28.2973 271.796C28.8294 271.575 29.2842 271.202 29.6042 270.723C29.9242 270.244 30.095 269.681 30.095 269.105C30.095 268.333 29.7881 267.592 29.242 267.046C28.6959 266.5 27.9552 266.193 27.1829 266.193Z" fill="#C8642F"/>
</g>
<defs>
<clipPath id="clip0_1816_1353">
<path d="M0 -0.000976562H424V301.999C424 310.836 416.837 317.999 408 317.999H0V-0.000976562Z" fill="white"/>
</clipPath>
</defs>
</svg>
