<svg width="494" height="277" viewBox="0 0 494 277" fill="none" xmlns="http://www.w3.org/2000/svg">
<g opacity="0.65" filter="url(#filter0_f_1816_1213)">
<g clip-path="url(#clip0_1816_1213)">
<g clip-path="url(#clip1_1816_1213)">
<path fill-rule="evenodd" clip-rule="evenodd" d="M493.983 37.4063C485.201 23.0171 485.102 8.69365 511.414 -1.29426C529.309 -8.07864 582.131 -12.5838 571.607 17.8383C565.692 34.9423 578.475 44.9201 591.052 50.2534C609.213 57.9494 631.616 86.0999 588.249 77.6315C563.955 72.906 507.191 59.0384 493.983 37.4063ZM57.8148 252.283C43.128 220.914 70.5544 172.851 109.801 153.977C185.729 117.459 191.389 92.5931 185.02 73.7518C169.128 26.7296 157.136 -2.65671 199.755 -3.51267C290.011 -5.32589 222.122 -39.5821 282.019 -68.0517C339.619 -95.4298 456.329 -47.4959 456.329 5.77376C456.329 81.3339 502.921 74.6153 574.636 123.443C658.28 180.4 490.291 209.91 589.682 252.283H57.8148Z" fill="#9ED8F5"/>
<path fill-rule="evenodd" clip-rule="evenodd" d="M422.529 98.5924C428.648 99.7152 434.181 102.947 438.164 107.727C442.148 112.506 444.331 118.53 444.334 124.752V172.195H466.133V252.283H325.722V172.195H347.522V124.752C347.525 118.531 349.707 112.507 353.69 107.728C357.672 102.949 363.203 99.7163 369.322 98.5924V51.9248C369.322 44.8679 372.125 38.0999 377.115 33.1099C382.104 28.1199 388.872 25.3166 395.928 25.3166C402.984 25.3166 409.752 28.1199 414.741 33.1099C419.731 38.0999 422.534 44.8679 422.534 51.9248L422.529 98.5924Z" fill="#FBF8F3"/>
<path fill-rule="evenodd" clip-rule="evenodd" d="M352.321 184.27C356.827 184.269 361.15 186.058 364.337 189.245C367.524 192.431 369.315 196.753 369.317 201.26V252.283H335.327V201.26C335.327 199.028 335.767 196.819 336.621 194.757C337.476 192.696 338.727 190.822 340.305 189.245C341.883 187.667 343.757 186.416 345.818 185.562C347.88 184.708 350.089 184.269 352.321 184.27Z" fill="#B4B5B5"/>
<path fill-rule="evenodd" clip-rule="evenodd" d="M355.466 184.561C359.359 185.293 362.873 187.363 365.402 190.412C367.932 193.461 369.316 197.298 369.317 201.26V252.283H341.612V201.26C341.613 197.298 342.998 193.461 345.528 190.412C348.057 187.363 351.572 185.293 355.466 184.561Z" fill="#01283D"/>
<path fill-rule="evenodd" clip-rule="evenodd" d="M395.923 184.27C400.429 184.269 404.752 186.058 407.939 189.245C411.126 192.431 412.918 196.753 412.919 201.26V252.283H378.927V201.26C378.928 196.753 380.719 192.431 383.907 189.245C387.094 186.058 391.416 184.269 395.923 184.27Z" fill="#B4B5B5"/>
<path fill-rule="evenodd" clip-rule="evenodd" d="M399.065 184.561C402.958 185.293 406.473 187.363 409.003 190.412C411.533 193.461 412.918 197.298 412.919 201.26V252.283H385.214V201.26C385.215 197.298 386.6 193.461 389.129 190.413C391.658 187.364 395.173 185.294 399.065 184.561Z" fill="#01283D"/>
<path fill-rule="evenodd" clip-rule="evenodd" d="M439.522 184.27C441.754 184.269 443.963 184.708 446.025 185.562C448.086 186.416 449.959 187.667 451.537 189.245C453.115 190.822 454.367 192.696 455.222 194.757C456.076 196.819 456.516 199.028 456.516 201.26V252.283H422.529V201.26C422.53 196.753 424.321 192.431 427.509 189.245C430.696 186.058 435.018 184.269 439.525 184.27" fill="#B4B5B5"/>
<path fill-rule="evenodd" clip-rule="evenodd" d="M442.665 184.561C446.558 185.293 450.073 187.363 452.603 190.412C455.132 193.461 456.517 197.298 456.518 201.26V252.283H428.814V201.26C428.815 197.298 430.2 193.461 432.729 190.413C435.258 187.364 438.772 185.294 442.665 184.561Z" fill="#01283D"/>
<path fill-rule="evenodd" clip-rule="evenodd" d="M374.123 107.765C378.629 107.764 382.951 109.553 386.137 112.739C389.324 115.925 391.115 120.246 391.117 124.752V172.195H357.127V124.752C357.127 122.521 357.568 120.311 358.422 118.25C359.277 116.189 360.529 114.316 362.107 112.738C363.685 111.161 365.559 109.91 367.62 109.056C369.682 108.203 371.892 107.764 374.123 107.765Z" fill="#B4B5B5"/>
<path fill-rule="evenodd" clip-rule="evenodd" d="M377.266 108.056C381.158 108.788 384.673 110.857 387.202 113.906C389.731 116.955 391.116 120.791 391.117 124.752V172.195H363.412V124.752C363.413 120.791 364.798 116.954 367.328 113.906C369.858 110.857 373.373 108.788 377.266 108.056Z" fill="#00507A"/>
<path fill-rule="evenodd" clip-rule="evenodd" d="M417.723 107.765C422.228 107.765 426.548 109.555 429.734 112.741C432.919 115.926 434.71 120.247 434.711 124.752V172.195H400.729V124.752C400.73 120.246 402.521 115.925 405.708 112.739C408.895 109.553 413.217 107.764 417.723 107.765Z" fill="#B4B5B5"/>
<path fill-rule="evenodd" clip-rule="evenodd" d="M420.865 108.056C424.757 108.79 428.27 110.859 430.798 113.908C433.326 116.956 434.71 120.792 434.711 124.752V172.195H407.014V124.752C407.015 120.791 408.4 116.955 410.929 113.906C413.458 110.858 416.972 108.789 420.865 108.056Z" fill="#00507A"/>
<path fill-rule="evenodd" clip-rule="evenodd" d="M395.923 34.9372C398.154 34.9365 400.364 35.3754 402.425 36.2287C404.487 37.0821 406.36 38.3332 407.939 39.9106C409.517 41.4881 410.769 43.3609 411.624 45.4223C412.478 47.4837 412.918 49.6932 412.919 51.9247V95.518H378.927V51.9247C378.927 49.6932 379.367 47.4837 380.222 45.4223C381.076 43.3609 382.328 41.4881 383.907 39.9106C385.485 38.3332 387.358 37.0821 389.42 36.2287C391.482 35.3754 393.691 34.9365 395.923 34.9372Z" fill="#B4B5B5"/>
<path fill-rule="evenodd" clip-rule="evenodd" d="M399.065 35.2284C402.958 35.9609 406.473 38.0301 409.002 41.0785C411.532 44.127 412.917 47.9634 412.919 51.9247V95.518H385.214V51.9247C385.216 47.9637 386.601 44.1277 389.13 41.0792C391.659 38.0308 395.173 35.9614 399.065 35.2284Z" fill="#00507A"/>
<path d="M412.916 52.5857H382.213V55.3765H412.916V52.5857Z" fill="#956C26"/>
<path fill-rule="evenodd" clip-rule="evenodd" d="M397.566 75.37H389.995V74.1367C391.474 73.5669 392.426 70.3001 392.426 68.145V64.0424C392.426 62.679 392.967 61.3714 393.931 60.4073C394.895 59.4432 396.203 58.9016 397.566 58.9016C398.929 58.9016 400.237 59.4432 401.201 60.4073C402.165 61.3714 402.707 62.679 402.707 64.0424V68.145C402.707 70.3001 403.659 73.5669 405.137 74.1367V75.37H397.566Z" fill="#D9B500"/>
<path fill-rule="evenodd" clip-rule="evenodd" d="M397.566 58.9142C398.241 58.9139 398.909 59.0465 399.533 59.3046C400.157 59.5627 400.723 59.9411 401.201 60.4183C401.678 60.8955 402.057 61.462 402.315 62.0856C402.574 62.7092 402.707 63.3775 402.707 64.0525V68.1449C402.707 70.3 403.659 73.5668 405.137 74.1366V75.3699H397.566V58.9142Z" fill="#C5A405"/>
<path fill-rule="evenodd" clip-rule="evenodd" d="M399.949 75.3699C400.067 75.7445 400.096 76.1416 400.032 76.5293C399.969 76.9169 399.815 77.2841 399.582 77.601C399.35 77.9179 399.047 78.1757 398.697 78.3534C398.346 78.531 397.959 78.6236 397.566 78.6236C397.173 78.6236 396.786 78.531 396.436 78.3534C396.085 78.1757 395.782 77.9179 395.55 77.601C395.318 77.2841 395.164 76.9169 395.1 76.5293C395.036 76.1416 395.065 75.7445 395.183 75.3699H399.949Z" fill="#B2871C"/>
<path d="M398.708 55.3764H396.427V59.1598H398.708V55.3764Z" fill="#B2871C"/>
<path d="M391.117 127.006H360.414V129.799H391.117V127.006Z" fill="#956C26"/>
<path fill-rule="evenodd" clip-rule="evenodd" d="M375.766 149.793H368.195V148.56C369.674 147.987 370.623 144.723 370.623 142.568V138.476C370.653 137.132 371.208 135.853 372.169 134.913C373.13 133.973 374.421 133.446 375.765 133.446C377.109 133.446 378.4 133.973 379.361 134.913C380.322 135.853 380.877 137.132 380.907 138.476V142.568C380.907 144.723 381.859 147.987 383.338 148.56V149.793H375.766Z" fill="#D9B500"/>
<path fill-rule="evenodd" clip-rule="evenodd" d="M375.766 133.337C376.441 133.337 377.11 133.47 377.733 133.728C378.357 133.986 378.924 134.364 379.401 134.841C379.878 135.319 380.257 135.885 380.515 136.509C380.774 137.132 380.907 137.801 380.907 138.476V142.568C380.907 144.723 381.859 147.987 383.338 148.56V149.793H375.766V133.337Z" fill="#C5A405"/>
<path fill-rule="evenodd" clip-rule="evenodd" d="M378.149 149.793C378.268 150.167 378.296 150.565 378.233 150.952C378.169 151.34 378.015 151.707 377.783 152.024C377.551 152.341 377.247 152.599 376.897 152.776C376.546 152.954 376.159 153.047 375.766 153.047C375.374 153.047 374.986 152.954 374.636 152.776C374.286 152.599 373.982 152.341 373.75 152.024C373.518 151.707 373.364 151.34 373.3 150.952C373.236 150.565 373.265 150.167 373.384 149.793H378.149Z" fill="#B2871C"/>
<path d="M376.906 129.8H374.624V133.583H376.906V129.8Z" fill="#B2871C"/>
<path d="M434.719 127.006H404.016V129.799H434.719V127.006Z" fill="#956C26"/>
<path fill-rule="evenodd" clip-rule="evenodd" d="M419.366 149.793H411.795V148.56C413.273 147.987 414.226 144.723 414.226 142.568V138.476C414.255 137.132 414.81 135.853 415.771 134.913C416.732 133.973 418.023 133.446 419.367 133.446C420.711 133.446 422.002 133.973 422.963 134.913C423.924 135.853 424.479 137.132 424.509 138.476V142.568C424.509 144.723 425.458 147.987 426.937 148.56V149.793H419.366Z" fill="#D9B500"/>
<path fill-rule="evenodd" clip-rule="evenodd" d="M419.366 133.337C420.041 133.337 420.709 133.47 421.333 133.728C421.957 133.986 422.524 134.364 423.002 134.841C423.479 135.318 423.858 135.885 424.117 136.508C424.375 137.132 424.509 137.8 424.509 138.476V142.568C424.509 144.723 425.458 147.987 426.937 148.56V149.793H419.366V133.337Z" fill="#C5A405"/>
<path fill-rule="evenodd" clip-rule="evenodd" d="M421.749 149.793C421.867 150.167 421.896 150.565 421.832 150.952C421.769 151.34 421.614 151.707 421.382 152.024C421.15 152.341 420.847 152.599 420.496 152.776C420.146 152.954 419.759 153.047 419.366 153.047C418.973 153.047 418.586 152.954 418.236 152.776C417.885 152.599 417.582 152.341 417.35 152.024C417.118 151.707 416.963 151.34 416.9 150.952C416.836 150.565 416.865 150.167 416.983 149.793H421.749Z" fill="#B2871C"/>
<path d="M420.508 129.8H418.227V133.583H420.508V129.8Z" fill="#B2871C"/>
<path d="M572.319 202.865H456.518V252.283H572.319V202.865Z" fill="#ECE8DB"/>
<path fill-rule="evenodd" clip-rule="evenodd" d="M65.1303 187.744C68.1487 218.698 80.9263 238.365 94.3216 252.283H83.5319C72.0205 240.343 60.704 214.19 61.4637 187.744H65.1303Z" fill="#B75720"/>
<path fill-rule="evenodd" clip-rule="evenodd" d="M88.9255 252.283H83.5294C72.0205 240.343 60.704 214.19 61.4637 187.744H63.6237C63.768 188.881 63.8769 190.084 63.9225 191.37C65.4241 229.668 88.9154 252.283 88.9154 252.283" fill="#904324"/>
<path fill-rule="evenodd" clip-rule="evenodd" d="M62.7526 189.618C63.2793 174.469 67.969 162.574 85.6261 158.439C84.01 161.895 82.1816 165.247 80.1514 168.477L79.3918 168.343L74.3273 167.444L77.447 170.546L78.2624 171.359C77.2765 172.813 76.2586 174.233 75.2086 175.619L73.8766 175.077L69.6985 173.378L73.2436 177.784L73.393 177.966C72.8629 178.628 72.3269 179.283 71.785 179.931L71.3393 179.521L68.3488 176.68L70.2429 181.428L70.329 181.643C67.9158 184.416 65.3811 187.07 62.7526 189.631" fill="#009844"/>
<path fill-rule="evenodd" clip-rule="evenodd" d="M63.4895 189.534C77.4597 183.639 90.2271 182.889 101.409 197.162C97.5926 197.149 93.7803 196.9 89.9941 196.418L89.7966 195.658L88.4849 190.699L86.9833 194.83L86.5883 195.911C84.8563 195.631 83.1394 195.306 81.4378 194.936L81.3694 193.5L81.1542 188.995L78.6422 194.06L78.5384 194.273C77.7163 194.07 76.8967 193.859 76.0796 193.639L76.2771 193.06L77.599 189.155L74.0843 192.867L73.9247 193.037C70.3948 192.024 66.9206 190.834 63.4895 189.527" fill="#40A437"/>
<path fill-rule="evenodd" clip-rule="evenodd" d="M63.4895 189.534C71.7141 176.799 81.843 168.991 99.1228 174.492C95.9624 176.634 92.6727 178.58 89.2725 180.316L88.6875 179.81L84.8082 176.449L85.8945 180.711L86.1781 181.826C84.5879 182.569 82.9842 183.266 81.3669 183.918L80.5009 182.77L77.7838 179.169L78.5612 184.763L78.5942 184.996C77.8024 185.295 77.0065 185.583 76.2063 185.86L76.0417 185.27L74.9402 181.294L74.1248 186.331L74.0894 186.561C70.5949 187.704 67.0574 188.684 63.487 189.534" fill="#6CB82D"/>
<path fill-rule="evenodd" clip-rule="evenodd" d="M63.4895 189.534C74.378 192.006 82.3342 197.038 82.8887 210.374C80.6115 208.727 78.4382 206.942 76.381 205.028L76.5835 204.499L77.9307 200.968L75.2567 202.794L74.5552 203.273C73.642 202.36 72.7557 201.431 71.8964 200.487L72.4712 199.598L74.2792 196.813L70.6025 198.76L70.4505 198.841C70.0454 198.37 69.6453 197.891 69.2528 197.41L69.6174 197.157L72.0863 195.384L68.3893 196.098L68.2222 196.131C66.5484 194.004 64.9784 191.806 63.4895 189.547" fill="#009844"/>
<path fill-rule="evenodd" clip-rule="evenodd" d="M63.4895 189.534C62.2943 174.423 57.0831 162.746 39.2589 159.399C41.0292 162.778 43.0046 166.046 45.1741 169.184L45.9337 169.017L50.9425 167.897L47.9595 171.131L47.1796 171.977C48.2279 173.385 49.3075 174.759 50.4183 176.1L51.7274 175.497L55.8271 173.616L52.4871 178.174L52.3478 178.364C52.9049 179 53.4688 179.63 54.0393 180.253L54.4648 179.812L57.3261 176.842L55.6397 181.669L55.5612 181.889C58.0934 184.553 60.7446 187.091 63.4845 189.534" fill="#40A437"/>
<path fill-rule="evenodd" clip-rule="evenodd" d="M63.4895 189.534C52.9935 178.592 41.5657 172.851 25.6457 181.547C29.156 183.045 32.7552 184.325 36.4228 185.381L36.8988 184.773L40.0691 180.737L39.8159 185.126L39.7476 186.275C41.4509 186.704 43.1567 187.085 44.8651 187.417L45.4982 186.126L47.4784 182.074L47.7898 187.701V187.936C48.6255 188.075 49.4611 188.206 50.2967 188.329L50.3474 187.719L50.6791 183.609L52.4339 188.42L52.5149 188.641C56.1639 189.096 59.8229 189.4 63.4895 189.545" fill="#009844"/>
<path fill-rule="evenodd" clip-rule="evenodd" d="M63.4895 189.534C52.2845 195.106 44.9487 202.703 47.8734 217.361C49.918 214.966 51.8124 212.448 53.5455 209.819L53.1859 209.295L50.7829 205.805L54.1811 207.087L55.0699 207.424C55.8245 206.188 56.5437 204.938 57.2273 203.676L56.3664 202.86L53.6595 200.302L58.1795 201.455L58.3694 201.5C58.6834 200.88 58.9923 200.252 59.2936 199.624L58.8252 199.434L55.6675 198.167L59.8836 197.965H60.0761C61.3422 195.205 62.4614 192.394 63.4895 189.547" fill="#40A437"/>
<path fill-rule="evenodd" clip-rule="evenodd" d="M63.4895 189.534C51.5476 185.797 41.001 186.192 32.946 198.801C36.0795 198.485 39.1906 197.977 42.262 197.281L42.3659 196.651L43.0496 192.472L44.6145 195.749L45.0221 196.605C46.4233 196.237 47.8076 195.833 49.175 195.395L49.1167 194.212L48.9395 190.494L51.4008 194.452L51.5046 194.617C52.163 194.386 52.8188 194.149 53.4721 193.905L53.267 193.442L51.8718 190.34L55.0497 193.125L55.1966 193.252C58.0149 192.133 60.7674 190.884 63.4895 189.542" fill="#6CB82D"/>
<path fill-rule="evenodd" clip-rule="evenodd" d="M62.8311 186.916C62.2553 186.916 61.6925 187.088 61.214 187.408C60.7354 187.728 60.3626 188.183 60.1426 188.715C59.9226 189.248 59.8652 189.833 59.9779 190.398C60.0905 190.963 60.3681 191.481 60.7754 191.888C61.1828 192.295 61.7017 192.573 62.2665 192.685C62.8313 192.797 63.4167 192.739 63.9486 192.519C64.4806 192.298 64.9352 191.925 65.2551 191.446C65.575 190.967 65.7457 190.404 65.7457 189.828C65.7457 189.446 65.6703 189.067 65.5238 188.713C65.3773 188.36 65.1626 188.038 64.8919 187.768C64.6212 187.498 64.2999 187.283 63.9463 187.137C63.5927 186.991 63.2138 186.916 62.8311 186.916Z" fill="#6D2E1B"/>
<path fill-rule="evenodd" clip-rule="evenodd" d="M65.7052 188.742C65.1293 188.742 64.5664 188.914 64.0878 189.234C63.6092 189.554 63.2364 190.01 63.0164 190.542C62.7965 191.074 62.7393 191.66 62.8522 192.225C62.965 192.79 63.2428 193.308 63.6504 193.715C64.058 194.122 64.5772 194.399 65.1421 194.511C65.7071 194.623 66.2926 194.565 66.8245 194.344C67.3564 194.123 67.8109 193.749 68.1304 193.27C68.45 192.791 68.6203 192.228 68.6198 191.652C68.6198 191.269 68.5444 190.89 68.3978 190.537C68.2513 190.184 68.0365 189.863 67.7658 189.592C67.4951 189.322 67.1738 189.108 66.8202 188.962C66.4666 188.816 66.0877 188.741 65.7052 188.742Z" fill="#9F4B24"/>
<path fill-rule="evenodd" clip-rule="evenodd" d="M62.1829 190.193C61.607 190.193 61.044 190.364 60.5651 190.684C60.0862 191.004 59.7129 191.459 59.4925 191.991C59.2721 192.523 59.2145 193.108 59.3268 193.673C59.4392 194.238 59.7165 194.757 60.1238 195.164C60.531 195.572 61.0499 195.849 61.6148 195.962C62.1797 196.074 62.7652 196.016 63.2973 195.796C63.8294 195.575 64.2842 195.202 64.6042 194.723C64.9242 194.244 65.095 193.681 65.095 193.105C65.095 192.333 64.7881 191.592 64.242 191.046C63.6959 190.5 62.9552 190.193 62.1829 190.193Z" fill="#C8642F"/>
<path fill-rule="evenodd" clip-rule="evenodd" d="M160.823 172.329H189.15L209.319 154.589H180.989L160.823 172.329Z" fill="#F39F1E"/>
<path d="M235.563 190.573H100.607V252.28H235.563V190.573Z" fill="#FBF8F3"/>
<path fill-rule="evenodd" clip-rule="evenodd" d="M133.422 252.283H105.777V216.069C105.827 212.434 107.305 208.965 109.893 206.411C112.48 203.858 115.969 202.427 119.605 202.427C123.24 202.427 126.729 203.858 129.316 206.411C131.904 208.965 133.382 212.434 133.432 216.069L133.422 252.283Z" fill="#B4B5B5"/>
<path fill-rule="evenodd" clip-rule="evenodd" d="M133.421 252.283H110.632V216.069C110.643 212.828 111.789 209.692 113.871 207.208C115.952 204.723 118.837 203.045 122.027 202.465C125.216 203.045 128.101 204.723 130.182 207.208C132.264 209.692 133.41 212.828 133.421 216.069V252.283Z" fill="#01283D"/>
<path fill-rule="evenodd" clip-rule="evenodd" d="M165.748 252.283H138.093V216.069C138.143 212.434 139.621 208.965 142.209 206.411C144.797 203.858 148.285 202.427 151.921 202.427C155.556 202.427 159.045 203.858 161.632 206.411C164.22 208.965 165.698 212.434 165.748 216.069V252.283Z" fill="#B4B5B5"/>
<path fill-rule="evenodd" clip-rule="evenodd" d="M198.074 252.283H170.422V216.069C170.422 212.402 171.879 208.885 174.472 206.292C177.064 203.699 180.581 202.242 184.248 202.242C187.915 202.242 191.431 203.699 194.024 206.292C196.617 208.885 198.074 212.402 198.074 216.069V252.283Z" fill="#B4B5B5"/>
<path fill-rule="evenodd" clip-rule="evenodd" d="M230.403 252.283H202.761V216.069C202.81 212.434 204.289 208.965 206.876 206.411C209.464 203.858 212.953 202.427 216.588 202.427C220.223 202.427 223.712 203.858 226.3 206.411C228.888 208.965 230.366 212.434 230.415 216.069L230.403 252.283Z" fill="#B4B5B5"/>
<path fill-rule="evenodd" clip-rule="evenodd" d="M165.748 252.283H142.958V216.069C142.969 212.828 144.115 209.692 146.196 207.207C148.278 204.722 151.163 203.044 154.353 202.465C157.542 203.044 160.428 204.722 162.509 207.207C164.591 209.692 165.737 212.828 165.748 216.069V252.283Z" fill="#01283D"/>
<path fill-rule="evenodd" clip-rule="evenodd" d="M198.074 252.283H175.284V216.069C175.295 212.827 176.44 209.692 178.522 207.207C180.603 204.721 183.489 203.044 186.679 202.465C189.868 203.044 192.754 204.722 194.835 207.207C196.917 209.692 198.063 212.828 198.074 216.069V252.283Z" fill="#01283D"/>
<path fill-rule="evenodd" clip-rule="evenodd" d="M230.403 252.283H207.613V216.069C207.624 212.828 208.77 209.692 210.851 207.207C212.933 204.722 215.818 203.044 219.008 202.465C222.197 203.044 225.083 204.722 227.164 207.207C229.246 209.692 230.391 212.828 230.403 216.069V252.283Z" fill="#01283D"/>
<path d="M235.563 185.513H100.607V190.575H235.563V185.513Z" fill="#B4B5B5"/>
<path d="M348.272 93.0362H235.563V252.283H348.272V93.0362Z" fill="#ECE8DB"/>
<path d="M235.563 93.0362H214.298V185.513H235.563V93.0362Z" fill="#FBF8F3"/>
<path fill-rule="evenodd" clip-rule="evenodd" d="M281.513 42.5168C310.633 42.5168 334.603 64.6654 337.452 93.0388H225.563C228.415 64.6629 252.372 42.5168 281.513 42.5168Z" fill="#0073B6"/>
<path fill-rule="evenodd" clip-rule="evenodd" d="M233.284 93.0362C234.565 83.2681 238.388 74.0076 244.37 66.1809C250.353 58.3542 258.286 52.2358 267.375 48.4376C259.816 53.417 253.436 59.9886 248.683 67.6924C243.93 75.3963 240.918 84.0461 239.858 93.0362H233.284Z" fill="#00507A"/>
<path d="M294.108 26.1598H268.902V43.9653H294.108V26.1598Z" fill="#ECE8DB"/>
<path fill-rule="evenodd" clip-rule="evenodd" d="M263.577 105.321C262.624 105.321 261.679 105.508 260.799 105.873C259.918 106.237 259.117 106.772 258.443 107.446C257.768 108.12 257.233 108.92 256.868 109.801C256.503 110.681 256.315 111.625 256.315 112.579V124.137H270.837V112.581C270.837 111.628 270.649 110.684 270.284 109.803C269.919 108.922 269.385 108.122 268.71 107.448C268.036 106.773 267.236 106.239 266.355 105.874C265.474 105.509 264.53 105.321 263.577 105.321Z" fill="#B4B5B5"/>
<path fill-rule="evenodd" clip-rule="evenodd" d="M262.232 105.448C260.569 105.761 259.068 106.645 257.987 107.947C256.906 109.25 256.315 110.889 256.315 112.581V124.139H268.15V112.581C268.15 110.889 267.558 109.25 266.478 107.947C265.397 106.645 263.896 105.761 262.232 105.448Z" fill="#272423"/>
<path fill-rule="evenodd" clip-rule="evenodd" d="M300.914 105.321C298.991 105.324 297.148 106.091 295.789 107.452C294.43 108.813 293.667 110.658 293.667 112.582V124.14H308.189V112.582C308.189 111.627 308.001 110.681 307.635 109.8C307.27 108.918 306.733 108.117 306.058 107.442C305.382 106.768 304.58 106.233 303.697 105.869C302.815 105.505 301.869 105.319 300.914 105.321Z" fill="#B4B5B5"/>
<path fill-rule="evenodd" clip-rule="evenodd" d="M299.572 105.448C297.911 105.763 296.413 106.648 295.335 107.951C294.257 109.253 293.667 110.891 293.667 112.581V124.139H305.503V112.581C305.502 110.889 304.911 109.25 303.83 107.947C302.75 106.645 301.248 105.761 299.585 105.448" fill="#272423"/>
<path fill-rule="evenodd" clip-rule="evenodd" d="M299.332 158.388H299.408V252.283H246.274V158.388L259.538 145.984L272.802 133.578L286.068 145.984L299.332 158.388Z" fill="#FBF8F3"/>
<path d="M348.272 158.388H299.408V252.28H348.272V158.388Z" fill="#ECE8DB"/>
<path fill-rule="evenodd" clip-rule="evenodd" d="M348.272 158.388L335.008 145.984L321.742 133.578H321.668H272.802L286.068 145.984L299.332 158.388H299.408H348.272Z" fill="#0073B6"/>
<path fill-rule="evenodd" clip-rule="evenodd" d="M272.84 198.945C274.59 198.944 276.323 199.288 277.94 199.958C279.557 200.627 281.026 201.608 282.264 202.845C283.502 204.082 284.484 205.551 285.154 207.168C285.824 208.785 286.169 210.518 286.169 212.268V252.28H259.51V212.268C259.511 210.518 259.856 208.785 260.526 207.168C261.196 205.551 262.178 204.082 263.416 202.845C264.653 201.608 266.123 200.627 267.74 199.958C269.357 199.288 271.09 198.944 272.84 198.945Z" fill="#B4B5B5"/>
<path fill-rule="evenodd" clip-rule="evenodd" d="M275.304 199.173C278.357 199.747 281.114 201.369 283.098 203.761C285.082 206.152 286.168 209.161 286.169 212.268V252.28H264.44V212.268C264.441 209.161 265.527 206.152 267.511 203.761C269.494 201.37 272.251 199.747 275.304 199.173Z" fill="#272423"/>
<path fill-rule="evenodd" clip-rule="evenodd" d="M323.838 173.659C322.297 173.658 320.77 173.962 319.346 174.551C317.921 175.141 316.627 176.005 315.537 177.095C314.446 178.185 313.581 179.479 312.991 180.904C312.401 182.328 312.097 183.855 312.097 185.396V204.086H335.58V185.396C335.58 183.855 335.276 182.328 334.686 180.904C334.095 179.479 333.23 178.185 332.14 177.095C331.05 176.005 329.755 175.141 328.331 174.551C326.907 173.962 325.38 173.658 323.838 173.659Z" fill="#B4B5B5"/>
<path fill-rule="evenodd" clip-rule="evenodd" d="M321.668 173.861C318.979 174.367 316.55 175.797 314.803 177.903C313.055 180.009 312.098 182.659 312.097 185.396V204.086H331.237V185.396C331.237 182.66 330.28 180.009 328.533 177.903C326.786 175.797 324.358 174.367 321.668 173.861Z" fill="#272423"/>
<path fill-rule="evenodd" clip-rule="evenodd" d="M272.84 164.833C273.793 164.833 274.737 165.02 275.618 165.385C276.499 165.749 277.3 166.284 277.974 166.958C278.648 167.632 279.183 168.432 279.549 169.313C279.914 170.194 280.102 171.138 280.102 172.091V183.649H265.58V172.096C265.58 171.142 265.767 170.198 266.132 169.317C266.496 168.436 267.031 167.635 267.705 166.961C268.38 166.286 269.18 165.751 270.061 165.386C270.942 165.021 271.886 164.833 272.84 164.833Z" fill="#B4B5B5"/>
<path fill-rule="evenodd" clip-rule="evenodd" d="M274.184 164.965C275.847 165.277 277.349 166.161 278.429 167.463C279.51 168.765 280.102 170.404 280.102 172.096V183.654H268.264V172.096C268.265 170.404 268.857 168.764 269.938 167.462C271.019 166.16 272.521 165.277 274.184 164.965Z" fill="#272423"/>
<path fill-rule="evenodd" clip-rule="evenodd" d="M161.488 101.603L200.664 124.757H185.099L161.488 101.603Z" fill="#0073B6"/>
<path fill-rule="evenodd" clip-rule="evenodd" d="M137.982 124.709C137.982 127.69 136.149 130.129 133.908 130.129H126.352C124.111 130.129 122.277 127.69 122.277 124.709H137.982Z" fill="#00507A"/>
<path fill-rule="evenodd" clip-rule="evenodd" d="M137.982 124.709L161.488 101.603L122.277 124.709H137.982Z" fill="#0073B6"/>
<path fill-rule="evenodd" clip-rule="evenodd" d="M153.689 124.757L161.488 101.603L137.982 124.757H153.689Z" fill="#00507A"/>
<path fill-rule="evenodd" clip-rule="evenodd" d="M169.394 124.757L161.488 101.603L153.689 124.757H169.394Z" fill="#0073B6"/>
<path fill-rule="evenodd" clip-rule="evenodd" d="M185.099 124.757L161.488 101.603L169.376 124.709L185.099 124.757Z" fill="#00507A"/>
<path fill-rule="evenodd" clip-rule="evenodd" d="M153.689 124.709C153.689 127.69 151.856 130.129 149.615 130.129H142.056C139.815 130.129 137.982 127.69 137.982 124.709H153.689Z" fill="#0073B6"/>
<path fill-rule="evenodd" clip-rule="evenodd" d="M169.394 124.709C169.394 127.69 167.561 130.129 165.32 130.129H157.761C155.523 130.129 153.689 127.69 153.689 124.709H169.394Z" fill="#00507A"/>
<path fill-rule="evenodd" clip-rule="evenodd" d="M185.084 124.709C185.084 127.69 183.25 130.129 181.009 130.129H173.451C171.21 130.129 169.376 127.69 169.376 124.709H185.084Z" fill="#0073B6"/>
<path fill-rule="evenodd" clip-rule="evenodd" d="M200.788 124.709C200.788 127.69 198.955 130.129 196.717 130.129H189.158C186.917 130.129 185.084 127.69 185.084 124.709H200.788Z" fill="#00507A"/>
<path d="M162.615 130.129H160.45V185.513H162.615V130.129Z" fill="#745D38"/>
<path d="M161.532 130.129H160.45V185.513H161.532V130.129Z" fill="#C8A44F"/>
<path d="M137.622 172.329H134.204V185.51H137.622V172.329Z" fill="#F39F1E"/>
<path d="M184.509 172.329H181.09V185.51H184.509V172.329Z" fill="#F39F1E"/>
<path fill-rule="evenodd" clip-rule="evenodd" d="M116.089 172.329H187.314C187.951 172.328 188.561 172.074 189.011 171.625C189.462 171.175 189.715 170.565 189.717 169.928C189.715 169.292 189.461 168.683 189.011 168.233C188.56 167.783 187.951 167.53 187.314 167.528H116.089C115.452 167.53 114.843 167.783 114.393 168.233C113.944 168.683 113.69 169.292 113.688 169.928C113.69 170.564 113.944 171.174 114.393 171.624C114.843 172.074 115.452 172.327 116.089 172.329Z" fill="#F7B300"/>
<path d="M122.401 172.329H118.983V185.51H122.401V172.329Z" fill="#F39F1E"/>
<path d="M169.288 172.329H165.869V185.51H169.288V172.329Z" fill="#F39F1E"/>
</g>
</g>
</g>
<defs>
<filter id="filter0_f_1816_1213" x="0" y="-0.000976562" width="494" height="277" filterUnits="userSpaceOnUse" color-interpolation-filters="sRGB">
<feFlood flood-opacity="0" result="BackgroundImageFix"/>
<feBlend mode="normal" in="SourceGraphic" in2="BackgroundImageFix" result="shape"/>
<feGaussianBlur stdDeviation="17.5" result="effect1_foregroundBlur_1816_1213"/>
</filter>
<clipPath id="clip0_1816_1213">
<path d="M35 34.999H459V225.999C459 234.836 451.837 241.999 443 241.999H35V34.999Z" fill="white"/>
</clipPath>
<clipPath id="clip1_1816_1213">
<rect width="639" height="335" fill="white" transform="translate(25 -76.001)"/>
</clipPath>
</defs>
</svg>
