<svg width="20" height="20" viewBox="0 0 20 20" fill="none" xmlns="http://www.w3.org/2000/svg">
<path d="M9 1.99902C9.60747 1.99902 10.1573 2.35864 10.4008 2.91518L12.768 8.32502L16.0039 8.12378C17.0396 8.05905 17.9316 8.84615 17.9963 9.88182L18 9.99902C18 11.0367 17.1588 11.8779 16.1211 11.8779L16.0039 11.8743L12.768 11.672L10.4008 17.0829C10.1573 17.6394 9.60747 17.999 9 17.999C8.51245 17.999 8.11722 17.6038 8.11722 17.1162L8.11892 17.0614L8.822 11.425L6.364 11.271L5.22361 13.5518C5.08657 13.8259 4.80643 13.999 4.5 13.999C4.22386 13.999 4 13.7752 4 13.499V11.123L2.93762 11.0576C2.41059 11.0247 2 10.5876 2 10.0596V9.93847C2 9.41041 2.41059 8.97336 2.93762 8.94042L4 8.87402V6.49902C4 6.22288 4.22386 5.99902 4.5 5.99902C4.80643 5.99902 5.08657 6.17215 5.22361 6.44624L6.363 8.72602L8.822 8.57202L8.12403 2.9913C8.06356 2.50752 8.40672 2.06631 8.8905 2.00584C8.92683 2.0013 8.9634 1.99902 9 1.99902Z" fill="#9AA2AC"/>
</svg>
