<svg width="24" height="24" viewBox="0 0 24 24" fill="none" xmlns="http://www.w3.org/2000/svg">
<path fill-rule="evenodd" clip-rule="evenodd" d="M12 3.99902C12.5523 3.99902 13 4.44674 13 4.99902V10.999H19C19.5523 10.999 20 11.4467 20 11.999C20 12.5513 19.5523 12.999 19 12.999H13V18.999C13 19.5513 12.5523 19.999 12 19.999C11.4477 19.999 11 19.5513 11 18.999V12.999H5C4.44772 12.999 4 12.5513 4 11.999C4 11.4467 4.44772 10.999 5 10.999H11V4.99902C11 4.44674 11.4477 3.99902 12 3.99902Z" fill="#6B7178"/>
</svg>
