<svg width="24" height="24" viewBox="0 0 24 24" fill="none" xmlns="http://www.w3.org/2000/svg">
<path fill-rule="evenodd" clip-rule="evenodd" d="M11 1.99902C15.9706 1.99902 20 6.02846 20 10.999C20 13.1238 19.2637 15.0766 18.0323 16.6162L21.7071 20.2919C22.0976 20.6824 22.0976 21.3156 21.7071 21.7061C21.3466 22.0666 20.7794 22.0943 20.3871 21.7893L20.2929 21.7061L16.6172 18.0313C15.0776 19.2627 13.1248 19.999 11 19.999C6.02944 19.999 2 15.9696 2 10.999C2 6.02846 6.02944 1.99902 11 1.99902ZM11 3.99902C7.13401 3.99902 4 7.13303 4 10.999C4 14.865 7.13401 17.999 11 17.999C14.866 17.999 18 14.865 18 10.999C18 7.13303 14.866 3.99902 11 3.99902Z" fill="#27292C"/>
</svg>
