<svg width="16" height="16" viewBox="0 0 16 16" fill="none" xmlns="http://www.w3.org/2000/svg">
<path d="M4.85355 2.14547C4.65829 1.95021 4.34171 1.95021 4.14645 2.14547L1.14645 5.14547C0.951184 5.34073 0.951184 5.65731 1.14645 5.85258C1.34171 6.04784 1.65829 6.04784 1.85355 5.85258L4 3.70613V13.499C4 13.7752 4.22386 13.999 4.5 13.999C4.77614 13.999 5 13.7752 5 13.499V3.70613L7.14645 5.85258C7.34171 6.04784 7.65829 6.04784 7.85355 5.85258C8.04882 5.65731 8.04882 5.34073 7.85355 5.14547L4.85355 2.14547ZM11.1525 13.8585C11.3463 14.0459 11.6537 14.0459 11.8475 13.8585L14.8475 10.9584C15.0461 10.7665 15.0514 10.4499 14.8595 10.2514C14.6676 10.0529 14.351 10.0475 14.1525 10.2394L12 12.3202L12 2.49912C12 2.22298 11.7761 1.99912 11.5 1.99912C11.2239 1.99912 11 2.22298 11 2.49912L11 12.3202L8.84752 10.2394C8.64898 10.0475 8.33244 10.0529 8.14051 10.2514C7.94858 10.4499 7.95394 10.7665 8.15248 10.9584L11.1525 13.8585Z" fill="#212121"/>
</svg>
